HIERARCHY
ROOT Hips
{
    OFFSET 0.0 0.0 0.0
    CHANNELS 6 Xposition Yposition Zposition Zrotation Xrotation Yrotation
    JOINT LeftUpLeg
    {
        OFFSET 15.35438673252656 0.0 0.0
        CHANNELS 3 Zrotation Xrotation Yrotation
        JOINT LeftLeg
        {
            OFFSET 0.0 0.0 -59.016302784133856
            CHANNELS 3 Zrotation Xrotation Yrotation
            JOINT LeftFoot
            {
                OFFSET 0.0 0.0 -42.841757130995674
                CHANNELS 3 Zrotation Xrotation Yrotation
                JOINT LeftToeBase
                {
                    OFFSET 0.0 -12.703000700852712 0.0
                    CHANNELS 3 Zrotation Xrotation Yrotation
                    End Site
                    {
                        OFFSET 0 0 0
                    }
                }
            }
        }
    }
    JOINT RightUpLeg
    {
        OFFSET -15.35438673252656 0.0 0.0
        CHANNELS 3 Zrotation Xrotation Yrotation
        JOINT RightLeg
        {
            OFFSET 0.0 0.0 -59.016302784133856
            CHANNELS 3 Zrotation Xrotation Yrotation
            JOINT RightFoot
            {
                OFFSET 0.0 0.0 -42.841757130995674
                CHANNELS 3 Zrotation Xrotation Yrotation
                JOINT RightToeBase
                {
                    OFFSET 0.0 -12.703000700852712 0.0
                    CHANNELS 3 Zrotation Xrotation Yrotation
                    End Site
                    {
                        OFFSET 0 0 0
                    }
                }
            }
        }
    }
    JOINT Spine
    {
        OFFSET 0.0 0.0 12.353279566353022
        CHANNELS 3 Zrotation Xrotation Yrotation
        JOINT Spine1
        {
            OFFSET 0.0 0.0 11.812038433279332
            CHANNELS 3 Zrotation Xrotation Yrotation
            JOINT Spine2
            {
                OFFSET 0.0 0.0 11.812038433279332
                CHANNELS 3 Zrotation Xrotation Yrotation
                JOINT Spine3
                {
                    OFFSET 0.0 0.0 11.812038433279326
                    CHANNELS 3 Zrotation Xrotation Yrotation
                    JOINT Spine4
                    {
                        OFFSET 0.0 0.0 11.812038433279335
                        CHANNELS 3 Zrotation Xrotation Yrotation
                        JOINT RightShoulder
                        {
                            OFFSET -25.94802301204627 0.0 0.0
                            CHANNELS 3 Zrotation Xrotation Yrotation
                            JOINT RightArm
                            {
                                OFFSET -32.69160493541504 0.0 0.0
                                CHANNELS 3 Zrotation Xrotation Yrotation
                                JOINT RightForeArm
                                {
                                    OFFSET -32.678264260856224 0.0 0.0
                                    CHANNELS 3 Zrotation Xrotation Yrotation
                                    JOINT RightHand
                                    {
                                        OFFSET -10.53238112925683 0.0 0.0
                                        CHANNELS 3 Zrotation Xrotation Yrotation
                                        End Site
                                        {
                                            OFFSET 0 0 0
                                        }
                                    }
                                }
                            }
                        }
                        JOINT LeftShoulder
                        {
                            OFFSET 25.94802301204627 0.0 0.0
                            CHANNELS 3 Zrotation Xrotation Yrotation
                            JOINT LeftArm
                            {
                                OFFSET 32.69160493541504 0.0 0.0
                                CHANNELS 3 Zrotation Xrotation Yrotation
                                JOINT LeftForeArm
                                {
                                    OFFSET 32.678264260856224 0.0 0.0
                                    CHANNELS 3 Zrotation Xrotation Yrotation
                                    JOINT LeftHand
                                    {
                                        OFFSET 10.53238112925683 0.0 0.0
                                        CHANNELS 3 Zrotation Xrotation Yrotation
                                        End Site
                                        {
                                            OFFSET 0 0 0
                                        }
                                    }
                                }
                            }
                        }
                        JOINT Neck
                        {
                            OFFSET 0.0 0.0 11.81203850526305
                            CHANNELS 3 Zrotation Xrotation Yrotation
                            JOINT Head
                            {
                                OFFSET 0.0 0.0 26.777465936470378
                                CHANNELS 3 Zrotation Xrotation Yrotation
                                End Site
                                {
                                    OFFSET 0 0 0
                                }
                            }
                        }
                    }
                }
            }
        }
    }
}
MOTION
Frames: 4
Frame Time: 0.03333333333333333
23.29805363416672 0.19134258502162996 524.2804676055908 26.161358094109666 -72.52759895390449 23.974361755839254 -0.7432880170764553 -12.155652024842123 -18.934976325032412 15.410283004910498 -6.943655105698757 37.37616844202781 134.24237012011474 -2.067360542951286e-14 29.089589067902388 -1.5902773407317584e-15 0.0 0.0 4.434842164501741 -9.133607182597125 6.24152501246212 -3.3986179916467676 -2.7373596285864337 13.335444640809172 115.25557573169193 -3.1805546814635168e-15 -105.17086832981852 0.0 0.0 0.0 0.45323760878948643 -18.362498492475943 0.29257412542619426 7.951386703658794e-16 2.4848083448933737e-17 7.951386703658794e-16 7.951386703658794e-16 2.4848083448933737e-17 7.951386703658794e-16 7.951386703658794e-16 2.4848083448933737e-17 7.951386703658794e-16 7.951386703658794e-16 2.4848083448933737e-17 7.951386703658794e-16 127.80840361531642 5.50679737111065 -165.192469908642 92.91997274949296 -2.4201665909322276e-15 -6.687483389215479e-15 -2.7744165290333693e-15 -18.312697669277497 2.7744165290333693e-15 -3.1805546814635168e-15 0.0 0.0 -134.10945227611884 9.50832237588949 154.1504392872079 -105.18784401668529 6.985008491697083e-15 -1.3376459844880915e-15 -180.0 18.54570960993161 -180.0 0.0 0.0 0.0 -0.4328348936444805 8.727621850143956e-15 -1.5573225813168043e-15 -7.951386703658792e-16 -5.517382872562698e-33 7.951386703658792e-16
24.258108901977543 0.6048280956689269 523.637685585022 25.608515761577543 -72.68781543893147 23.46559080426341 -0.05905203826184846 -12.764872355143426 -18.05165411288923 14.630692727561476 -6.870361415994917 36.60438595902543 173.30548432384927 9.93923337957349e-16 24.268219356977472 0.0 0.0 -6.957463365701443e-16 3.9629800608813714 -9.57085914208326 6.851178837147557 -0.4225744412155564 -0.32799104273180435 14.504288328573033 110.60984935876144 0.0 -103.38049677834833 0.0 0.0 0.0 0.4118759547465204 -18.265683659628994 -0.031440964198679776 7.951386703658792e-16 0.0 0.0 7.951386703658792e-16 0.0 0.0 7.951386703658792e-16 0.0 0.0 7.951386703658792e-16 0.0 0.0 127.09817830168417 5.504668078463331 -167.5431873450709 92.83557311911693 -2.19265754975821e-15 2.3039489905958894e-15 -4.976850831065185e-15 -18.894343092643552 8.844730843576782e-15 0.0 0.0 0.0 -134.03985905004564 9.141896310760941 154.3935301739084 -104.54140133967732 5.83884544015882e-15 7.546604313328745e-15 -180.0 28.66193568369868 -180.0 -1.5902773407317588e-15 0.0 0.0 -0.026737048524548217 -8.201722570359231e-16 7.949473255075288e-16 0.0 0.0 0.0
25.2544020652771 0.9956372010055929 523.005860710144 25.244536804904804 -72.77074052599218 22.989841950429934 0.6527352153426701 -13.371148021395232 -16.96755528124828 13.647564114858179 -6.724098822385847 35.884168186546965 -168.88743425288698 -1.1927080055488187e-14 26.403234192647126 -3.1805546814635168e-15 0.0 0.0 3.4467695911414147 -10.017722927910699 7.610498751407595 0.5764042448444121 0.4302406801217834 14.418328933455237 110.10967930565117 -9.54166404439055e-15 -101.31733099580116 0.0 0.0 3.180554681463516e-15 0.39189943677978145 -18.17149597041559 -0.22225479478404658 7.951386703658792e-16 5.517382872562698e-33 7.951386703658792e-16 7.951386703658792e-16 5.517382872562698e-33 7.951386703658792e-16 7.951386703658792e-16 5.517382872562698e-33 7.951386703658792e-16 7.951386703658792e-16 5.517382872562698e-33 7.951386703658792e-16 126.81078622633224 3.924089904605616 -169.78942697923821 94.09049299700432 -2.1672954703898436e-15 2.3278226792019957e-15 -7.340344437299672e-15 -21.293760639109937 -4.616194049449345e-15 3.1805546814635168e-15 0.0 0.0 -133.8007263295895 9.377588383560951 154.66617038229452 -104.63391390833297 -2.7427908421914927e-15 -1.3956921581479935e-14 -180.0 35.45599368397709 180.0 0.0 0.0 0.0 0.29685385383022933 2.2957492231991207e-14 -8.546137406279807e-16 -7.951386703658792e-16 0.0 0.0
26.279795265197755 1.3262043736875055 522.3682634353638 24.829523825944946 -72.74273160418082 22.210119056664617 1.331132062248952 -13.974451167544144 -15.617516968002697 12.752814974028103 -6.61273511300495 35.224794547989006 -156.43688997969852 4.770832022195275e-15 29.974870925945222 3.1805546814635168e-15 0.0 0.0 2.8990804578556197 -10.56513466288594 8.625759623296517 2.496817269183319 1.7922791965728453 14.793598916834664 107.5660584108353 -6.3611093629270335e-15 -99.21976627757732 0.0 0.0 0.0 0.4265192076916084 -18.142509082725237 -0.1338550705983196 7.951386703658791e-16 -5.517382872562698e-33 -7.951386703658791e-16 7.951386703658791e-16 -5.517382872562698e-33 -7.951386703658791e-16 7.951386703658791e-16 -5.517382872562698e-33 -7.951386703658791e-16 7.951386703658791e-16 -5.517382872562698e-33 -7.951386703658791e-16 128.0126473112415 2.1205308263984137 -172.94392161300559 97.25961134492032 -1.1080017757286705e-14 2.9563950279596663e-15 1.1103447608655998e-14 -21.001447885926066 -1.1766804595302676e-15 0.0 0.0 0.0 -133.5829056559815 9.76474324490455 155.03962732388317 -105.09551604661678 5.0498333858451205e-15 -3.86819015850074e-15 -180.0 35.533169935797545 180.0 -1.5902773407317584e-15 0.0 0.0 -0.27682957168307765 1.6652009109138466e-14 -1.5500540834915953e-15 0.0 0.0 0.0
